<?xml version="1.0" encoding="UTF-8"?>
<svg version="1.1" xmlns="http://www.w3.org/2000/svg" width="32" height="32">
<path d="M0 0 C10.56 0 21.12 0 32 0 C32 10.56 32 21.12 32 32 C21.44 32 10.88 32 0 32 C0 21.44 0 10.88 0 0 Z " fill="#646767" transform="translate(0,0)"/>
<path d="M0 0 C5.00147987 0 6.81156072 0.02896975 11 2 C10.67 2.99 10.34 3.98 10 5 C7.36 5.33 4.72 5.66 2 6 C2.41947282 10.8938496 4.48576046 12.73093997 8 16 C12 20.54054054 12 20.54054054 12 24 C14.64 24 17.28 24 20 24 C20.0928125 22.948125 20.0928125 22.948125 20.1875 21.875 C21.49079802 17.26333007 24.42635792 14.10580255 28.3125 11.375 C28.869375 10.92125 29.42625 10.4675 30 10 C30 8.68 30 7.36 30 6 C27.36 5.67 24.72 5.34 22 5 C21.67 4.01 21.34 3.02 21 2 C25.18843928 0.02896975 26.99852013 0 32 0 C32 9.57 32 19.14 32 29 C21.44 29 10.88 29 0 29 C0 19.43 0 9.86 0 0 Z " fill="#FBFBF9" transform="translate(0,3)"/>
<path d="M0 0 C6.6 0 13.2 0 20 0 C19.10825333 3.56698669 17.97696469 6.4342299 16.4375 9.75 C15.98246094 10.73484375 15.52742188 11.7196875 15.05859375 12.734375 C14.70925781 13.48203125 14.35992187 14.2296875 14 15 C11.36 15 8.72 15 6 15 C4.99267601 13.06629769 3.99436712 11.12789694 3 9.1875 C2.443125 8.10855469 1.88625 7.02960937 1.3125 5.91796875 C0 3 0 3 0 0 Z " fill="#4FB37F" transform="translate(6,12)"/>
<path d="M0 0 C10.56 0 21.12 0 32 0 C32 0.66 32 1.32 32 2 C31.071875 1.95875 30.14375 1.9175 29.1875 1.875 C25.84190281 1.72863661 25.84190281 1.72863661 23 4 C21.68 4 20.36 4 19 4 C19.48705712 6.06402968 19.48705712 6.06402968 21 8 C24.56206661 8.81870185 24.56206661 8.81870185 28 9 C28 9.33 28 9.66 28 10 C20.08 10 12.16 10 4 10 C4 9.67 4 9.34 4 9 C5.670625 8.87625 5.670625 8.87625 7.375 8.75 C11.05753944 8.42126213 11.05753944 8.42126213 12.4375 5.9375 C12.623125 5.298125 12.80875 4.65875 13 4 C11.63875 3.7834375 11.63875 3.7834375 10.25 3.5625 C7 3 7 3 4.8125 2.4375 C2.82471794 1.88267973 2.82471794 1.88267973 0 2 C0 1.34 0 0.68 0 0 Z " fill="#FAFBF9" transform="translate(0,0)"/>
<path d="M0 0 C2.64 0 5.28 0 8 0 C9.125 5.625 9.125 5.625 8 9 C5.36 9 2.72 9 0 9 C-0.99 6.69 -1.98 4.38 -3 2 C-2.01 2 -1.02 2 0 2 C0 1.34 0 0.68 0 0 Z " fill="#4A946E" transform="translate(12,18)"/>
<path d="M0 0 C9.24 0 18.48 0 28 0 C26.77446495 6.12767526 25.72441958 6.48181521 21 10 C21.309375 9.236875 21.61875 8.47375 21.9375 7.6875 C22.67893593 5.81210323 23.36228217 3.91315348 24 2 C17.4 2 10.8 2 4 2 C4.99 3.98 5.98 5.96 7 8 C6.67 8.66 6.34 9.32 6 10 C2.08314366 6.48487252 1.07597185 5.37985925 0 0 Z " fill="#12653D" transform="translate(2,10)"/>
<path d="M0 0 C1.98 0 3.96 0 6 0 C6 0.99 6 1.98 6 3 C4.02 3 2.04 3 0 3 C0 2.01 0 1.02 0 0 Z " fill="#038745" transform="translate(13,23)"/>
</svg>
